<mxfile host="app.diagrams.net" agent="Mozilla/5.0 (Windows NT 10.0; Win64; x64; rv:133.0) Gecko/20100101 Firefox/133.0" version="25.0.3">
  <diagram id="prtHgNgQTEPvFCAcTncT" name="Page-1">
    <mxGraphModel dx="2048" dy="654" grid="1" gridSize="10" guides="1" tooltips="1" connect="1" arrows="1" fold="1" page="1" pageScale="1" pageWidth="827" pageHeight="1169" math="0" shadow="0">
      <root>
        <mxCell id="0" />
        <mxCell id="1" parent="0" />
        <mxCell id="ZwrQ2WRgiXMl-GxVxWnp-1" value="&lt;font style=&quot;font-size: 24px;&quot;&gt;Sistem&lt;/font&gt;" style="swimlane;whiteSpace=wrap;html=1;startSize=50;" vertex="1" parent="1">
          <mxGeometry x="390" y="40" width="470" height="870" as="geometry" />
        </mxCell>
        <mxCell id="ZwrQ2WRgiXMl-GxVxWnp-2" value="&lt;span style=&quot;font-size: 15px;&quot;&gt;Menampilkan Landing Page&lt;br&gt;&lt;/span&gt;" style="rounded=1;whiteSpace=wrap;html=1;" vertex="1" parent="ZwrQ2WRgiXMl-GxVxWnp-1">
          <mxGeometry x="167.51" y="199" width="162.49" height="60" as="geometry" />
        </mxCell>
        <mxCell id="ZwrQ2WRgiXMl-GxVxWnp-5" value="" style="ellipse;whiteSpace=wrap;html=1;aspect=fixed;" vertex="1" parent="ZwrQ2WRgiXMl-GxVxWnp-1">
          <mxGeometry x="194.9985714285716" y="770" width="80" height="80" as="geometry" />
        </mxCell>
        <mxCell id="ZwrQ2WRgiXMl-GxVxWnp-6" value="" style="ellipse;whiteSpace=wrap;html=1;aspect=fixed;fillColor=#000000;" vertex="1" parent="ZwrQ2WRgiXMl-GxVxWnp-1">
          <mxGeometry x="202.5" y="777.5" width="65" height="65" as="geometry" />
        </mxCell>
        <mxCell id="ZwrQ2WRgiXMl-GxVxWnp-7" style="edgeStyle=orthogonalEdgeStyle;rounded=0;orthogonalLoop=1;jettySize=auto;html=1;exitX=0.5;exitY=1;exitDx=0;exitDy=0;entryX=0.5;entryY=0;entryDx=0;entryDy=0;" edge="1" parent="ZwrQ2WRgiXMl-GxVxWnp-1" target="ZwrQ2WRgiXMl-GxVxWnp-5">
          <mxGeometry relative="1" as="geometry">
            <mxPoint x="235" y="660" as="sourcePoint" />
          </mxGeometry>
        </mxCell>
        <mxCell id="ZwrQ2WRgiXMl-GxVxWnp-8" value="&lt;font style=&quot;font-size: 24px;&quot;&gt;User&lt;/font&gt;" style="swimlane;whiteSpace=wrap;html=1;startSize=50;" vertex="1" parent="1">
          <mxGeometry x="-70" y="40" width="460" height="870" as="geometry" />
        </mxCell>
        <mxCell id="ZwrQ2WRgiXMl-GxVxWnp-9" style="edgeStyle=orthogonalEdgeStyle;rounded=0;orthogonalLoop=1;jettySize=auto;html=1;exitX=0.5;exitY=1;exitDx=0;exitDy=0;entryX=0.5;entryY=0;entryDx=0;entryDy=0;" edge="1" parent="ZwrQ2WRgiXMl-GxVxWnp-8" source="ZwrQ2WRgiXMl-GxVxWnp-10" target="ZwrQ2WRgiXMl-GxVxWnp-11">
          <mxGeometry relative="1" as="geometry" />
        </mxCell>
        <mxCell id="ZwrQ2WRgiXMl-GxVxWnp-10" value="" style="ellipse;whiteSpace=wrap;html=1;aspect=fixed;fillColor=#000000;" vertex="1" parent="ZwrQ2WRgiXMl-GxVxWnp-8">
          <mxGeometry x="207" y="70" width="50" height="50" as="geometry" />
        </mxCell>
        <mxCell id="ZwrQ2WRgiXMl-GxVxWnp-11" value="Membuka Landing Page" style="rounded=1;whiteSpace=wrap;html=1;" vertex="1" parent="ZwrQ2WRgiXMl-GxVxWnp-8">
          <mxGeometry x="174.22" y="170" width="115.57" height="40" as="geometry" />
        </mxCell>
        <mxCell id="ZwrQ2WRgiXMl-GxVxWnp-12" value="Memilih Halaman yang tersedia di header" style="rounded=1;whiteSpace=wrap;html=1;" vertex="1" parent="ZwrQ2WRgiXMl-GxVxWnp-8">
          <mxGeometry x="155.62" y="280" width="152.78" height="60" as="geometry" />
        </mxCell>
        <mxCell id="ZwrQ2WRgiXMl-GxVxWnp-25" value="&lt;span style=&quot;font-size: 15px;&quot;&gt;Data Property/Alat&lt;/span&gt;" style="rounded=1;whiteSpace=wrap;html=1;" vertex="1" parent="ZwrQ2WRgiXMl-GxVxWnp-8">
          <mxGeometry x="240" y="490" width="115.78" height="40" as="geometry" />
        </mxCell>
        <mxCell id="ZwrQ2WRgiXMl-GxVxWnp-16" style="edgeStyle=orthogonalEdgeStyle;rounded=0;orthogonalLoop=1;jettySize=auto;html=1;exitX=0.5;exitY=1;exitDx=0;exitDy=0;entryX=0;entryY=0.5;entryDx=0;entryDy=0;" edge="1" parent="1" source="ZwrQ2WRgiXMl-GxVxWnp-11" target="ZwrQ2WRgiXMl-GxVxWnp-2">
          <mxGeometry relative="1" as="geometry" />
        </mxCell>
        <mxCell id="ZwrQ2WRgiXMl-GxVxWnp-17" style="edgeStyle=orthogonalEdgeStyle;rounded=0;orthogonalLoop=1;jettySize=auto;html=1;exitX=0.5;exitY=1;exitDx=0;exitDy=0;entryX=1;entryY=0.5;entryDx=0;entryDy=0;" edge="1" parent="1" source="ZwrQ2WRgiXMl-GxVxWnp-2" target="ZwrQ2WRgiXMl-GxVxWnp-12">
          <mxGeometry relative="1" as="geometry" />
        </mxCell>
        <mxCell id="ZwrQ2WRgiXMl-GxVxWnp-22" value="" style="line;strokeWidth=4;html=1;perimeter=backbonePerimeter;points=[];outlineConnect=0;" vertex="1" parent="1">
          <mxGeometry x="17" y="450" width="290" height="10" as="geometry" />
        </mxCell>
        <mxCell id="ZwrQ2WRgiXMl-GxVxWnp-23" style="edgeStyle=orthogonalEdgeStyle;rounded=0;orthogonalLoop=1;jettySize=auto;html=1;" edge="1" parent="1" source="ZwrQ2WRgiXMl-GxVxWnp-12" target="ZwrQ2WRgiXMl-GxVxWnp-22">
          <mxGeometry relative="1" as="geometry" />
        </mxCell>
        <mxCell id="ZwrQ2WRgiXMl-GxVxWnp-24" value="&lt;span style=&quot;font-size: 15px;&quot;&gt;Data Property/Alat&lt;/span&gt;" style="rounded=1;whiteSpace=wrap;html=1;" vertex="1" parent="1">
          <mxGeometry x="17" y="530" width="115.78" height="40" as="geometry" />
        </mxCell>
      </root>
    </mxGraphModel>
  </diagram>
</mxfile>
